:FULLY-SPECIFIED
:FORCE-ALL-JOINTS-BE-3DOF
:DEGREES
408
root 4.44595 16.1388 -10.9534 0.703504 -39.6669 -0.809236
lfemur -27.7287 9.30125 -10.4377
ltibia 48.4705 -0 0
lfoot -14.7188 13.1587 -0.00752776
ltoes 2.9952 -0 0
rfemur -46.766 -25.0349 25.9686
rtibia 85.8288 -0 0
rfoot 2.9723 0.260909 -0.000875809
rtoes 33.3008 -0 0
lowerback 6.27768 4.70495 -0.825343
upperback 1.88376 6.13603 -2.35468
thorax -1.38783 3.0566 -2.40728
lowerneck -6.17234 3.08508 7.82914
upperneck 3.64296 3.4934 -0.808699
head 2.41732 1.83216 -1.48042
lclavicle -2.00075e-14 1.69282e-14 -9.40828e-33
lhumerus -45.3776 -17.4262 94.272
lradius 50.6967 -0 0
lwrist 18.2953 0 0
lhand -21.0797 1.36326 0.000426942
lfingers 7.12502 -0 0
lthumb 5.29735 31.277 0.000406952
rclavicle -2.00075e-14 1.69282e-14 -9.40828e-33
rhumerus -45.2275 9.67649 -90.8653
rradius 65.7737 -0 0
rwrist 7.98856 0 0
rhand -20.5755 -16.7656 -0.00661535
rfingers 7.12502 -0 0
rthumb 5.78404 -46.662 -0.00556397
409
root 4.42957 16.1358 -10.9071 0.609937 -39.8817 -0.743066
lfemur -27.6137 9.17856 -10.4492
ltibia 48.2267 -0 0
lfoot -14.7458 13.3066 -0.00343164
ltoes 2.89968 -0 0
rfemur -46.9328 -25.2013 25.9543
rtibia 86.1926 -0 0
rfoot 3.16891 0.258563 -0.000399237
rtoes 33.4402 -0 0
lowerback 6.28596 4.73718 -0.854968
upperback 1.87528 6.17626 -2.38574
thorax -1.39938 3.07642 -2.42548
lowerneck -6.15385 3.12473 7.87709
upperneck 3.68129 3.54547 -0.835671
head 2.42865 1.8582 -1.49562
lclavicle -1.99913e-14 1.72377e-14 -4.28909e-33
lhumerus -45.4136 -17.3815 94.2523
lradius 50.6334 -0 0
lwrist 18.2703 0 0
lhand -21.0901 1.34137 0.000194634
lfingers 7.12502 -0 0
lthumb 5.2873 31.2554 0.000185521
rclavicle -1.99913e-14 1.72377e-14 -4.28909e-33
rhumerus -45.2962 9.6633 -90.8455
rradius 65.79 -0 0
rwrist 7.99345 0 0
rhand -20.6689 -16.7279 -0.00301578
rfingers 7.12502 -0 0
rthumb 5.69396 -46.6291 -0.00253648
410
root 4.41949 16.1339 -10.8785 0.552058 -40.0139 -0.702022
lfemur -27.5429 9.10308 -10.4563
ltibia 48.0766 -0 0
lfoot -14.7623 13.3976 -0.000876829
ltoes 2.84092 -0 0
rfemur -47.0355 -25.3038 25.9458
rtibia 86.4164 -0 0
rfoot 3.28988 0.257121 -0.000102008
rtoes 33.526 -0 0
lowerback 6.29105 4.75701 -0.873193
upperback 1.87006 6.20101 -2.40485
thorax -1.4065 3.08861 -2.43668
lowerneck -6.14246 3.14912 7.90659
upperneck 3.70486 3.57752 -0.852249
head 2.43562 1.87422 -1.50497
lclavicle -1.99813e-14 1.74282e-14 -1.09595e-33
lhumerus -45.4358 -17.3541 94.2401
lradius 50.5945 -0 0
lwrist 18.2549 0 0
lhand -21.0965 1.3279 4.97325e-05
lfingers 7.12502 -0 0
lthumb 5.28112 31.2421 4.74039e-05
rclavicle -1.99813e-14 1.74282e-14 -1.09595e-33
rhumerus -45.3385 9.6552 -90.8333
rradius 65.8001 -0 0
rwrist 7.99646 0 0
rhand -20.7263 -16.7047 -0.000770583
rfingers 7.12502 -0 0
rthumb 5.63854 -46.6089 -0.000648115
411
root 4.41606 16.1333 -10.8688 0.532276 -40.0589 -0.687973
lfemur -27.5188 9.07735 -10.4588
ltibia 48.0255 0 0
lfoot -14.768 13.4286 0
ltoes 2.82089 0 0
rfemur -47.0705 -25.3387 25.9429
rtibia 86.4927 0 0
rfoot 3.33111 0.256629 0
rtoes 33.5552 0 0
lowerback 6.29278 4.76377 -0.879405
upperback 1.86828 6.20945 -2.41136
thorax -1.40892 3.09276 -2.4405
lowerneck -6.13857 3.15743 7.91665
upperneck 3.71289 3.58844 -0.857897
head 2.43799 1.87968 -1.50816
lclavicle -1.99779e-14 1.74931e-14 0
lhumerus -45.4433 -17.3447 94.236
lradius 50.5812 0 0
lwrist 18.2497 0 0
lhand -21.0987 1.32331 0
lfingers 7.12502 0 0
lthumb 5.27901 31.2376 0
rclavicle -1.99779e-14 1.74931e-14 0
rhumerus -45.3529 9.65244 -90.8291
rradius 65.8035 0 0
rwrist 7.99748 0 0
rhand -20.7459 -16.6968 0
rfingers 7.12502 0 0
rthumb 5.61965 -766.602 0
412
root 4.41108 16.1321 -10.8646 0.561173 -39.9501 -0.727976
lfemur -27.5693 9.10464 -10.4499
ltibia 48.0524 -0 0
lfoot -14.7746 13.4009 0.000908219
ltoes 2.81916 -0 0
rfemur -46.9907 -25.3206 25.9076
rtibia 86.4001 -0 0
rfoot 3.3124 0.224069 0.0030592
rtoes 33.4062 -0 0
lowerback 6.28886 4.75698 -0.8665
upperback 1.86617 6.20148 -2.40372
thorax -1.40905 3.08879 -2.43921
lowerneck -6.14059 3.14875 7.90974
upperneck 3.7069 3.57724 -0.856432
head 2.43589 1.87397 -1.50682
lclavicle -2.00165e-14 1.74638e-14 -5.60953e-33
lhumerus -45.4363 -17.3565 94.2487
lradius 50.586 -0 0
lwrist 18.2239 0 0
lhand -21.1116 1.30511 0.0011712
lfingers 7.12502 -0 0
lthumb 5.26654 31.2195 0.00112483
rclavicle -2.00165e-14 1.74638e-14 -5.60953e-33
rhumerus -45.359 9.63148 -90.8212
rradius 65.8027 -0 0
rwrist 8.00274 0 0
rhand -20.7575 -16.7095 0.000736221
rfingers 7.12502 -0 0
rthumb 5.60842 -46.6149 0.000718192
413
root 4.39648 16.1287 -10.8524 0.645128 -39.6309 -0.844574
lfemur -27.7175 9.18475 -10.4239
ltibia 48.1312 -0 0
lfoot -14.7938 13.3197 0.00355447
ltoes 2.8141 -0 0
rfemur -46.7569 -25.2674 25.8044
rtibia 86.1283 -0 0
rfoot 3.25748 0.12854 0.0119729
rtoes 32.9689 -0 0
lowerback 6.27733 4.73708 -0.828638
upperback 1.85998 6.17809 -2.3813
thorax -1.40944 3.07713 -2.43543
lowerneck -6.14653 3.12327 7.88947
upperneck 3.68933 3.54438 -0.852126
head 2.42974 1.85723 -1.5029
lclavicle -2.01296e-14 1.73778e-14 -2.19534e-32
lhumerus -45.4157 -17.3912 94.2858
lradius 50.6 -0 0
lwrist 18.1482 0 0
lhand -21.1495 1.25172 0.00458364
lfingers 7.12502 -0 0
lthumb 5.22993 31.1664 0.00440216
rclavicle -2.01296e-14 1.73778e-14 -2.19534e-32
rhumerus -45.3768 9.56998 -90.7979
rradius 65.8002 -0 0
rwrist 8.01817 0 0
rhand -20.7917 -16.7469 0.00288129
rfingers 7.12502 -0 0
rthumb 5.57546 -46.6526 0.00281073
414
root 4.37274 16.1231 -10.8326 0.778969 -39.1117 -1.03165
lfemur -27.9582 9.31507 -10.3821
ltibia 48.2594 -0 0
lfoot -14.8252 13.1876 0.00779715
ltoes 2.80586 -0 0
rfemur -46.3771 -25.18 25.6371
rtibia 85.6864 -0 0
rfoot 3.1682 -0.02674 0.0262647
rtoes 32.2581 -0 0
lowerback 6.25858 4.70474 -0.767093
upperback 1.84989 6.14008 -2.34486
thorax -1.41007 3.05818 -2.42929
lowerneck -6.15616 3.08187 7.85653
upperneck 3.66077 3.49097 -0.845108
head 2.41974 1.83002 -1.49652
lclavicle -2.03135e-14 1.7238e-14 -4.81555e-32
lhumerus -45.3823 -17.4475 94.3462
lradius 50.6228 -0 0
lwrist 18.0251 0 0
lhand -21.2111 1.16493 0.0100546
lfingers 7.12502 -0 0
lthumb 5.17044 31.0801 0.0096565
rclavicle -2.03135e-14 1.7238e-14 -4.81555e-32
rhumerus -45.4059 9.47005 -90.7599
rradius 65.7961 -0 0
rwrist 8.04324 0 0
rhand -20.8471 -16.8075 0.00632029
rfingers 7.12502 -0 0
rthumb 5.5219 -46.7139 0.00616552
415
root 4.34036 16.1155 -10.8055 0.956508 -38.403 -1.28219
lfemur -28.2867 9.49317 -10.326
ltibia 48.4341 -0 0
lfoot -14.8679 13.0075 0.0134674
ltoes 2.79463 -0 0
rfemur -45.8602 -25.0592 25.4103
rtibia 85.0838 -0 0
rfoot 3.04637 -0.238558 0.0453668
rtoes 31.2887 -0 0
lowerback 6.23294 4.66067 -0.683137
upperback 1.8361 6.08825 -2.29514
thorax -1.41094 3.03234 -2.42092
lowerneck -6.16925 3.02538 7.81161
upperneck 3.62181 3.41814 -0.835492
head 2.40609 1.7929 -1.4878
lclavicle -2.05643e-14 1.70473e-14 -8.31706e-32
lhumerus -45.3368 -17.5244 94.4285
lradius 50.6539 -0 0
lwrist 17.8573 0 0
lhand -21.2952 1.04655 0.0173662
lfingers 7.12502 -0 0
lthumb 5.08928 30.9623 0.0166785
rclavicle -2.05643e-14 1.70473e-14 -8.31706e-32
rhumerus -45.4457 9.33378 -90.7082
rradius 65.7906 -0 0
rwrist 8.07745 0 0
rhand -20.9228 -16.8903 0.0109162
rfingers 7.12502 -0 0
rthumb 5.44883 -46.7975 0.0106488
416
root 4.29983 16.106 -10.7717 1.17079 -37.5152 -1.58844
lfemur -28.6978 9.71647 -10.2572
ltibia 48.6529 -0 0
lfoot -14.9214 12.7821 0.0203747
ltoes 2.78057 -0 0
rfemur -45.2145 -24.9054 25.1283
rtibia 84.3296 -0 0
rfoot 2.8938 -0.50371 0.0686386
rtoes 30.0753 -0 0
lowerback 6.20077 4.60557 -0.578038
upperback 1.81877 6.0234 -2.23291
thorax -1.41202 2.99999 -2.41043
lowerneck -6.18557 2.95467 7.75541
upperneck 3.57303 3.32698 -0.823388
head 2.38901 1.74645 -1.47689
lclavicle -2.08783e-14 1.68087e-14 -1.25819e-31
lhumerus -45.28 -17.6208 94.5316
lradius 50.6928 -0 0
lwrist 17.6473 0 0
lhand -21.4003 0.898373 0.0262724
lfingers 7.12502 -0 0
lthumb 4.98768 30.815 0.0252321
rclavicle -2.08783e-14 1.68087e-14 -1.25819e-31
rhumerus -45.4956 9.16327 -90.6433
rradius 65.7837 -0 0
rwrist 8.12026 0 0
rhand -21.0175 -16.9939 0.0165142
rfingers 7.12502 -0 0
rthumb 5.35738 -46.9022 0.0161098
417
root 4.25165 16.0948 -10.7314 1.41462 -36.4586 -1.94252
lfemur -29.1865 9.98256 -10.1774
ltibia 48.9129 -0 0
lfoot -14.985 12.5142 0.0283121
ltoes 2.76385 -0 0
rfemur -44.4491 -24.7188 24.7961
rtibia 83.4329 -0 0
rfoot 2.7122 -0.819146 0.0953972
rtoes 28.6329 -0 0
lowerback 6.16239 4.54013 -0.453065
upperback 1.79808 5.94632 -2.15891
thorax -1.41332 2.96154 -2.39797
lowerneck -6.20488 2.87058 7.68863
upperneck 3.51502 3.21863 -0.808899
head 2.36868 1.69122 -1.46389
lclavicle -2.12515e-14 1.6525e-14 -1.7482e-31
lhumerus -45.2126 -17.7354 94.654
lradius 50.7391 -0 0
lwrist 17.3976 0 0
lhand -21.5254 0.722198 0.0365062
lfingers 7.12502 -0 0
lthumb 4.86688 30.6398 0.0350606
rclavicle -2.12515e-14 1.6525e-14 -1.7482e-31
rhumerus -45.5552 8.96065 -90.5659
rradius 65.7755 -0 0
rwrist 8.17115 0 0
rhand -21.1301 -17.1171 0.0229464
rfingers 7.12502 -0 0
rthumb 5.24864 -47.0266 0.0223845
418
root 4.19631 16.0818 -10.6852 1.68083 -35.2435 -2.33665
lfemur -29.748 10.2891 -10.0885
ltibia 49.2116 -0 0
lfoot -15.0582 12.2064 0.0370614
ltoes 2.74465 -0 0
rfemur -43.5729 -24.4996 24.4186
rtibia 82.403 -0 0
rfoot 2.5035 -1.18145 0.124889
rtoes 26.9761 -0 0
lowerback 6.11813 4.46508 -0.309482
upperback 1.7742 5.85782 -2.0739
thorax -1.41483 2.91737 -2.38365
lowerneck -6.22694 2.77398 7.61197
upperneck 3.44837 3.0942 -0.792124
head 2.34532 1.6278 -1.44894
lclavicle -2.16801e-14 1.61991e-14 -2.28821e-31
lhumerus -45.1355 -17.8673 94.7945
lradius 50.7922 -0 0
lwrist 17.1108 0 0
lhand -21.6691 0.51982 0.0477858
lfingers 7.12502 -0 0
lthumb 4.72808 30.4385 0.0458935
rclavicle -2.16801e-14 1.61991e-14 -2.28821e-31
rhumerus -45.6239 8.72802 -90.4769
rradius 65.766 -0 0
rwrist 8.22961 0 0
rhand -21.2594 -17.2586 0.0300357
rfingers 7.12502 -0 0
rthumb 5.12373 -47.1696 0.0293001
419
root 4.1343 16.0673 -10.6334 1.96255 -33.8805 -2.76338
lfemur -30.377 10.6335 -9.99251
ltibia 49.5462 -0 0
lfoot -15.1402 11.8615 0.0463975
ltoes 2.72314 -0 0
rfemur -42.5949 -24.2478 24.0008
rtibia 81.2491 -0 0
rfoot 2.26945 -1.58752 0.156365
rtoes 25.1198 -0 0
lowerback 6.06833 4.38112 -0.148553
upperback 1.74729 5.75871 -1.97861
thorax -1.41652 2.86789 -2.3676
lowerneck -6.2515 2.6657 7.52613
upperneck 3.37365 2.9548 -0.773158
head 2.31913 1.55675 -1.43216
lclavicle -2.21604e-14 1.5834e-14 -2.8643e-31
lhumerus -45.0495 -18.0153 94.9518
lradius 50.8518 -0 0
lwrist 16.7895 0 0
lhand -21.8302 0.293034 0.0598208
lfingers 7.12502 -0 0
lthumb 4.57253 30.213 0.0574518
rclavicle -2.21604e-14 1.5834e-14 -2.8643e-31
rhumerus -45.7012 8.4675 -90.3769
rradius 65.7555 -0 0
rwrist 8.29511 0 0
rhand -21.4044 -17.4172 0.0375992
rfingers 7.12502 -0 0
rthumb 4.98376 -47.3297 0.0366783
